<?xml version="1.0"?>
<svg xmlns="http://www.w3.org/2000/svg" xmlns:xlink="http://www.w3.org/1999/xlink" xmlns:svgjs="http://svgjs.com/svgjs" version="1.1" width="512" height="512" x="0" y="0" viewBox="0 0 512 512" style="enable-background:new 0 0 512 512" xml:space="preserve" class=""><g><link type="text/css" rel="stylesheet" id="dark-mode-general-link"/><link type="text/css" rel="stylesheet" id="dark-mode-custom-link"/><style type="text/css" id="dark-mode-custom-style"/><g xmlns="http://www.w3.org/2000/svg"><g><path d="m12.444 145.312-4.978 8.34 126.99 290.166h57.794l55.299-4.978 55.299 4.978h170.716c17.104 0 30.97-13.866 30.97-30.97v-259.197l-4.978-8.34h-487.112z" fill="#d8eafb" data-original="#d8eafb" style="" class=""/></g><g><path d="m453.822 145.312v216.824c0 17.104-13.866 30.97-30.97 30.97h-415.386l126.99 50.712h57.794l55.299-4.978 55.299 4.978h170.716c17.104 0 30.97-13.866 30.97-30.97v-259.197l-4.978-8.34h-45.734z" fill="#b3d8fb" data-original="#b3d8fb" style="" class=""/></g><g><path d="m12.444 145.312-4.978 8.34v259.196c0 17.104 13.866 30.97 30.97 30.97h96.02l49.844-49.844c12.53-12.53 12.53-32.844 0-45.374l-55.202-55.202c-11.463-11.463-11.463-30.048 0-41.511l18.928-18.928c12.738-12.738 30.013-19.893 48.027-19.893 21.802 0 39.477-17.674 39.477-39.477v-28.277z" fill="#000000" data-original="#05e29a" style="" class=""/></g><g><path d="m473.564 443.817c17.104 0 30.97-13.866 30.97-30.97v-170.8c-14.41-9.754-34.163-8.258-46.925 4.503l-26.852 26.852c-6.312 6.312-14.874 9.859-23.801 9.859h-41.783c-17.674 0-32.001 14.327-32.001 32.001v128.555z" fill="#000000" data-original="#05e29a" style="" class=""/></g><g><path d="m282.218 401.975h-29.824c-11.718 0-22.957 4.655-31.243 12.941l-28.901 28.901h110.598v-21.212c0-11.393-9.236-20.63-20.63-20.63z" fill="#000000" data-original="#05e29a" style="" class=""/></g><g><path d="m457.609 246.551-3.787 3.787v111.798c0 17.104-13.866 30.97-30.97 30.97h-89.68v50.712h140.391c17.104 0 30.97-13.866 30.97-30.97v-170.8c-14.409-9.755-34.162-8.259-46.924 4.503z" fill="#0dc183" data-original="#0dc183" style="" class=""/></g><g><path d="m282.218 401.975h-29.824c-11.718 0-22.957 4.655-31.243 12.941l-28.901 28.901h110.598v-21.212c0-11.393-9.236-20.63-20.63-20.63z" fill="#000000" data-original="#05e29a" style="" class=""/></g><g><path d="m282.218 401.975h-29.824c-11.718 0-22.957 4.655-31.243 12.941l-28.901 28.901h110.598v-21.212c0-11.393-9.236-20.63-20.63-20.63z" fill="#0dc183" data-original="#0dc183" style="" class=""/></g><g><path d="m38.436 443.817h96.02l49.844-49.844c.284-.284.554-.576.825-.868h-177.659v19.742c0 17.104 13.866 30.97 30.97 30.97z" fill="#0dc183" data-original="#0dc183" style="" class=""/></g><g><path d="m473.564 68.183h-435.128c-17.104 0-30.97 13.866-30.97 30.97v54.498h497.068v-54.498c0-17.104-13.866-30.97-30.97-30.97z" fill="#1690fb" data-original="#1690fb" style="" class=""/></g><g><path d="m473.564 68.183h-19.742v85.468h50.712v-54.498c0-17.104-13.866-30.97-30.97-30.97z" fill="#0571f9" data-original="#0571f9" style=""/></g><g><g><path d="m430.256 194.502c0 33.128-44.808 95.461-67.481 124.882-6.484 8.413-19.157 8.413-25.641 0-22.674-29.421-67.481-91.754-67.481-124.882 0-44.349 35.952-80.302 80.302-80.302s80.301 35.953 80.301 80.302z" fill="#dd636e" data-original="#dd636e" style="" class=""/></g><g><path d="m407.272 138.283c3.056 9.688 4.707 20 4.707 30.698 0 38.231-47 107.092-77.176 147.365.799 1.047 1.578 2.062 2.33 3.039 6.484 8.413 19.157 8.413 25.641 0 22.674-29.421 67.481-91.754 67.481-124.882.001-21.896-8.773-41.734-22.983-56.22z" fill="#d82e3d" data-original="#d82e3d" style="" class=""/></g><g><circle cx="349.954" cy="193.956" fill="#fceed9" r="39.924" data-original="#fceed9" style="" class=""/></g><g><path d="m361.162 155.639c3.785 6.103 5.977 13.299 5.977 21.009 0 22.049-17.875 39.924-39.924 39.924-3.893 0-7.651-.567-11.208-1.606 7.04 11.351 19.608 18.915 33.947 18.915 22.049 0 39.924-17.875 39.924-39.924 0-18.157-12.125-33.473-28.716-38.318z" fill="#fad59a" data-original="#fad59a" style="" class=""/></g></g><g><path d="m189.368 255.264-6.682 6.682c-4.665 4.665-4.665 12.229 0 16.894l17.715 17.715c4.013 4.013 9.455 6.267 15.129 6.267h13.03c3.849 0 6.969-3.12 6.969-6.969v-39.888c0-3.849-3.12-6.969-6.969-6.969h-24.063c-5.674.001-11.116 2.255-15.129 6.268z" fill="#000000" data-original="#05e29a" style="" class=""/></g><g><path d="m473.564 60.716h-17.595c-4.124 0-7.466 3.342-7.466 7.466s3.343 7.466 7.466 7.466h17.595c12.96 0 23.503 10.543 23.503 23.503v47.032h-73.881c-15.723-23.751-42.677-39.45-73.233-39.45s-57.509 15.699-73.233 39.45h-261.787v-47.03c0-12.96 10.544-23.503 23.503-23.503h383.872c4.124 0 7.466-3.342 7.466-7.466s-3.343-7.466-7.466-7.466h-383.872c-21.193-.002-38.436 17.241-38.436 38.435v101.606c0 4.124 3.343 7.466 7.466 7.466s7.466-3.342 7.466-7.466v-39.642h213.131v12.471c0 17.651-14.36 32.011-32.01 32.011-20.136 0-39.067 7.842-53.307 22.08l-18.928 18.928c-14.355 14.355-14.355 37.714 0 52.07l55.202 55.201c9.598 9.598 9.598 25.216 0 34.815l-47.658 47.657h-92.926c-12.96 0-23.503-10.543-23.503-23.503v-176.7c0-4.124-3.343-7.466-7.466-7.466s-7.467 3.342-7.467 7.466v176.7c0 21.193 17.243 38.436 38.436 38.436h435.128c21.194 0 38.436-17.243 38.436-38.436v-313.694c0-21.194-17.243-38.437-38.436-38.437zm23.503 100.401v69.146c-15.456-4.816-32.811-.918-44.737 11.008l-26.852 26.853c-4.948 4.947-11.526 7.672-18.522 7.672h-4.038c18.532-28.734 34.805-60.02 34.805-81.294 0-11.814-2.352-23.087-6.603-33.385zm-147.113-39.45c40.162 0 72.836 32.674 72.836 72.835 0 22.101-24.03 65.957-65.929 120.325-1.666 2.161-4.183 3.401-6.906 3.401-2.724 0-5.241-1.24-6.907-3.401-41.898-54.367-65.929-98.224-65.929-120.325 0-40.161 32.674-72.835 72.835-72.835zm-54.572 314.684h-85.106l16.155-16.155c6.935-6.936 16.156-10.754 25.964-10.754h29.824c7.259 0 13.164 5.905 13.164 13.163v13.746zm201.685-23.504c0 12.96-10.544 23.503-23.503 23.503h-131.243-1.682v-77.503c0-4.124-3.343-7.466-7.466-7.466s-7.466 3.342-7.466 7.466v77.503h-15.392v-13.746c0-15.493-12.604-28.096-28.097-28.096h-29.824c-13.797 0-26.768 5.372-36.522 15.127l-26.715 26.715h-36.675l37.098-37.098c15.42-15.421 15.42-40.513 0-55.933l-55.202-55.2c-8.533-8.534-8.533-22.419 0-30.952l18.928-18.927c11.419-11.419 26.6-17.707 42.748-17.707 25.885 0 46.943-21.058 46.943-46.944v-12.471h25.793c-4.251 10.297-6.603 21.571-6.603 33.385 0 34.683 43.252 95.985 69.034 129.44 4.515 5.858 11.343 9.218 18.734 9.218s14.219-3.36 18.734-9.218c7.172-9.307 15.696-20.77 24.265-33.214h14.003c10.985 0 21.313-4.278 29.081-12.045l26.852-26.854c9.097-9.096 22.944-11.174 34.178-5.524v166.541z" fill="#000000" data-original="#000000" style="" class=""/><circle cx="63.564" cy="110.917" r="13.894" fill="#000000" data-original="#000000" style="" class=""/><circle cx="106.306" cy="110.917" r="13.894" fill="#000000" data-original="#000000" style="" class=""/><circle cx="149.048" cy="110.917" r="13.894" fill="#000000" data-original="#000000" style="" class=""/><path d="m349.954 241.346c26.131 0 47.39-21.259 47.39-47.39s-21.259-47.391-47.39-47.391-47.39 21.26-47.39 47.391 21.259 47.39 47.39 47.39zm0-79.848c17.897 0 32.458 14.56 32.458 32.458 0 17.897-14.56 32.457-32.458 32.457-17.897 0-32.457-14.56-32.457-32.457s14.56-32.458 32.457-32.458z" fill="#000000" data-original="#000000" style="" class=""/><path d="m228.561 241.53h-24.063c-7.709 0-14.957 3.002-20.408 8.453 0 0 0 0-.001.001l-6.682 6.683c-7.568 7.568-7.568 19.884 0 27.453l17.716 17.715c5.452 5.451 12.7 8.453 20.409 8.453h13.03c7.959 0 14.435-6.476 14.435-14.435v-39.889c-.001-7.958-6.477-14.434-14.436-14.434zm-.498 53.826h-12.532c-3.721 0-7.219-1.449-9.85-4.08l-17.715-17.714c-1.747-1.747-1.747-4.59 0-6.337l6.682-6.682c2.632-2.632 6.13-4.08 9.851-4.08h23.566v38.893z" fill="#000000" data-original="#000000" style="" class=""/></g></g></g></svg>
