<svg id="Capa_1" enable-background="new 0 0 512 512" height="512" viewBox="0 0 512 512" width="512" xmlns="http://www.w3.org/2000/svg"><g><g><g><path clip-rule="evenodd" d="m123.951 506.533h264.715c2.915 0 6.144-2.515 5.287-5.287l-19.061-62.673c-.857-2.772-2.372-5.258-5.287-5.258h-226.593c-2.886 0-4.43 2.486-5.287 5.258l-19.061 62.673c-.857 2.772 2.372 5.287 5.287 5.287z" fill="#bcea73" fill-rule="evenodd"/></g><g><path clip-rule="evenodd" d="m336.312 438.573 19.09 62.673c.829 2.772-2.343 5.258-5.23 5.287h38.494c2.915 0 6.144-2.515 5.287-5.287l-19.061-62.673c-.857-2.772-2.372-5.258-5.287-5.258h-38.551c2.886 0 4.429 2.486 5.258 5.258z" fill="#99d53b" fill-rule="evenodd"/></g><g><path clip-rule="evenodd" d="m235.804 454.034c-47.382-53.899-120.369-124.488-144.06-190.304-47.125-130.975 23.377-258.263 164.265-258.263 140.859 0 211.389 127.288 164.236 258.264-23.662 65.816-96.65 136.405-144.06 190.304-18.605 21.176-21.748 21.176-40.381-.001z" fill="#fd4755" fill-rule="evenodd"/></g><g><path clip-rule="evenodd" d="m256.009 302.969c67.215 0 122.027-54.813 122.027-122.03 0-67.245-54.812-122.059-122.027-122.059s-122.055 54.814-122.055 122.059c-.001 67.216 54.84 122.03 122.055 122.03z" fill="#f8f6f6" fill-rule="evenodd"/></g><g><path clip-rule="evenodd" d="m200.654 183.797 11.288 16.49.829 21.12.372 13.203c.372 4.458 4.001 6.773 8.173 5.916l13.374-3.286 21.319-5.23 21.319 5.23 13.374 3.286c4.172.857 7.802-1.457 8.173-5.916l.372-13.203.829-21.12 12.174-17.776 7.516-11.088c2.172-3.515 1.057-7.545-3.258-9.288l-12.974-4.544-20.662-7.259-13.717-16.461-8.63-10.317c-1.257-1.4-2.858-2.229-4.515-2.401-1.658.171-3.258 1-4.515 2.401l-8.63 10.317-13.717 16.461-20.69 7.259-12.946 4.544c-4.315 1.743-5.43 5.773-3.258 9.288z" fill="#fb8627" fill-rule="evenodd"/></g><g><path clip-rule="evenodd" d="m261.067 124.182c5.173 15.232 8.03 31.922 8.03 49.441 0 21.177-4.172 41.153-11.574 58.757l19.804 4.858 13.374 3.286c4.172.857 7.802-1.457 8.173-5.916l.372-13.203.829-21.12 12.174-17.776 7.516-11.088c2.172-3.515 1.057-7.545-3.258-9.288l-12.974-4.544-20.662-7.259-13.717-16.461z" fill="#f2671f" fill-rule="evenodd"/></g><g><path clip-rule="evenodd" d="m312.249 182.51-12.174 17.776-.829 21.12-.372 13.203c-.372 4.458-4.001 6.773-8.173 5.916l-13.374-3.286-19.804-4.858c-11.145 26.607-29.635 47.812-52.183 59.615 15.432 7.059 32.607 10.974 50.668 10.974 67.386 0 122.027-54.642 122.027-122.03 0-67.417-54.641-122.059-122.027-122.059-12.66 0-24.891 1.943-36.379 5.516 18.404 14.089 33.007 34.98 41.438 59.786l8.087 9.688 13.717 16.461 20.662 7.259 12.974 4.544c4.315 1.743 5.43 5.773 3.258 9.288z" fill="#e2e2e2" fill-rule="evenodd"/></g><g><path clip-rule="evenodd" d="m334.597 274.304c-22.748 53.756-75.759 110.056-118.94 157.324.514.572 1.029 1.115 1.515 1.686 6.516 7.145 12.774 14.061 18.633 20.719 18.633 21.177 21.776 21.177 40.38 0 5.887-6.659 12.146-13.575 18.633-20.719 46.096-50.584 104.68-111.913 125.427-169.585 47.096-130.859-23.234-258.062-163.865-258.262h-.372-.372c-15.861.029-30.807 1.658-44.81 4.715 47.382 8.316 84.476 32.608 108.824 66.588 35.036 21.434 58.384 60.072 58.384 104.169.001 37.466-16.86 70.989-43.437 93.365z" fill="#f92c3d" fill-rule="evenodd"/></g></g><g><path d="m288.635 247.93c.09.03.18.05.28.07 1.08.22 2.16.33 3.22.33 3.08 0 5.99-.94 8.41-2.75 3.17-2.37 5.11-5.99 5.46-10.17.01-.14.02-.28.03-.42l.36-13.01.74-18.79 10.88-15.87 7.46-11c.06-.09.12-.18.17-.27 2.22-3.58 2.78-7.78 1.55-11.54-1.27-3.86-4.23-6.91-8.35-8.57-.11-.04-.22-.08-.33-.12l-31.43-11.02-20.87-24.99c-.06-.06-.11-.13-.17-.19-2.47-2.75-5.77-4.47-9.29-4.83-.51-.06-1.03-.06-1.54 0-3.52.36-6.82 2.08-9.29 4.83-.06.06-.12.13-.17.19l-20.87 24.99-31.44 11.02c-.11.04-.21.08-.32.12-4.12 1.66-7.09 4.71-8.35 8.57-1.23 3.76-.67 7.96 1.54 11.54.06.09.12.18.18.27l8.34 12.28c0 .01.01.01.02.02l9.98 14.57.73 18.71.37 13.09c0 .14.01.28.02.42.35 4.18 2.29 7.8 5.46 10.17 3.25 2.43 7.39 3.29 11.64 2.42.09-.02.19-.04.28-.07l32.65-8zm-31.51-118.34h.01c-.01 0-.01 0-.01.01zm-36.24 103.5-.33-11.7-.82-20.95c-.05-1.41-.51-2.77-1.31-3.94l-11.19-16.35-7.29-10.71 31.86-11.17c1.27-.45 2.41-1.24 3.27-2.28l20.91-25.03 20.9 25.03c.87 1.04 2 1.83 3.28 2.28l31.85 11.17-6.39 9.43-12.09 17.63c-.8 1.16-1.25 2.53-1.3 3.94l-.83 21.04-.33 11.61-33.31-8.17c-.58-.15-1.18-.22-1.78-.22s-1.2.07-1.79.22z"/><path d="m439.905 162.34c-3.3-32.82-14.42-63.5-32.16-88.75-33.34-47.45-87.24-73.59-151.76-73.59-34.93 0-66.6 7.54-94.14 22.4-26.23 14.16-47.49 34.23-63.21 59.65-2.18 3.52-1.09 8.14 2.44 10.32 3.52 2.18 8.14 1.09 10.32-2.43 29.87-48.33 81.22-74.94 144.59-74.94 59.49 0 109.03 23.87 139.49 67.22 34 48.39 40.01 113.6 16.47 178.91-18.59 51.69-68.74 106.44-112.98 154.75-2.63 2.87-26.24 28.93-28.59 31.6-3.47 3.95-11.61 13.2-14.4 13.2s-40.42-42-43.08-44.91c-44.2-48.27-94.3-102.98-112.91-154.64-17.41-48.38-18.56-98.38-3.23-140.78 1.4-3.9-.61-8.2-4.51-9.61-3.89-1.4-8.19.61-9.6 4.51-16.51 45.68-15.36 99.29 3.23 150.96 19.43 53.93 69.76 109.24 114.57 158.17h-56.62c-2.76 0-9.48 1.02-12.43 10.53l-18.91 62.13c-1.01 3.26-.39 6.77 1.71 9.61 2.43 3.3 6.53 5.35 10.71 5.35h70.26c4.14 0 7.5-3.36 7.5-7.5s-3.36-7.5-7.5-7.5h-66.98l17.53-57.62h68.43c5.64 6.19 11.04 12.19 16.15 18 9.74 11.06 16.78 18.3 25.68 18.3h.01c8.91 0 15.94-7.25 25.66-18.3 5.12-5.82 10.52-11.81 16.16-18h69.04l17.54 57.62h-154.56c-4.14 0-7.5 3.36-7.5 7.5s3.36 7.5 7.5 7.5h157.84c4.17 0 8.27-2.05 10.7-5.34 2.1-2.85 2.72-6.35 1.72-9.59l-18.93-62.19c-2.93-9.48-9.66-10.5-12.41-10.5h-57.23c44.83-48.95 95.15-104.24 114.55-158.17 12.42-34.49 17.21-70.41 13.84-103.87z"/><path d="m384.605 181.55c0-70.9-57.7-128.57-128.62-128.57-70.94 0-128.66 57.67-128.66 128.57 0 70.87 57.72 128.54 128.66 128.54 70.92 0 128.62-57.67 128.62-128.54zm-242.28 0c0-62.62 50.99-113.57 113.66-113.57 62.65 0 113.62 50.95 113.62 113.57 0 62.6-50.97 113.54-113.62 113.54-62.67 0-113.66-50.94-113.66-113.54z"/></g></g></svg>